<svg width="250" height="100" viewBox="0 0 250 100" fill="none" xmlns="http://www.w3.org/2000/svg">
<path d="M179.326 34.0542C179.278 34.006 179.254 33.9157 179.254 33.7833C179.254 33.6147 179.278 33.5304 179.326 33.5304C179.434 33.5304 179.579 33.5184 179.759 33.4943C179.94 33.4582 180.108 33.41 180.265 33.3498C180.422 33.2896 180.512 33.2294 180.536 33.1692C180.584 33.0006 180.614 32.7839 180.626 32.519C180.65 32.2541 180.662 31.935 180.662 31.5618V25.0236C180.662 23.9761 180.608 23.356 180.5 23.1633C180.415 22.9827 179.765 22.8924 178.549 22.8924C178.092 22.8924 177.736 22.9346 177.484 23.0189C177.231 23.0911 177.038 23.2416 176.906 23.4704C176.773 23.6992 176.647 24.0423 176.526 24.4999C176.502 24.5601 176.442 24.5902 176.346 24.5902C176.141 24.5902 175.997 24.548 175.912 24.4637L176.255 21.881C176.52 21.9412 176.755 21.9894 176.96 22.0255C177.164 22.0616 177.345 22.0797 177.502 22.0797C178.369 22.0797 179.133 22.0917 179.795 22.1158C180.458 22.1399 181.011 22.1519 181.457 22.1519C182.384 22.1519 183.179 22.1399 183.841 22.1158C184.515 22.0917 185.045 22.0797 185.43 22.0797C185.587 22.0797 185.768 22.0616 185.972 22.0255C186.177 21.9894 186.412 21.9412 186.677 21.881L187.02 24.4637C186.936 24.548 186.791 24.5902 186.586 24.5902C186.49 24.5902 186.43 24.5601 186.406 24.4999C186.297 24.0423 186.171 23.6992 186.026 23.4704C185.894 23.2416 185.701 23.0911 185.449 23.0189C185.196 22.9346 184.84 22.8924 184.383 22.8924C183.119 22.8924 182.456 22.9827 182.396 23.1633C182.288 23.5366 182.234 24.1386 182.234 24.9695V31.4895C182.234 32.1879 182.288 32.7478 182.396 33.1692C182.42 33.2174 182.511 33.2715 182.667 33.3317C182.824 33.3919 182.992 33.4401 183.173 33.4762C183.353 33.5124 183.48 33.5304 183.552 33.5304C183.6 33.5304 183.624 33.6207 183.624 33.8013C183.624 33.8736 183.612 33.9579 183.588 34.0542C182.986 34.0301 182.511 34.012 182.161 34C181.812 33.9759 181.589 33.9639 181.493 33.9639L179.326 34.0542ZM188.248 34.0542C188.2 34.006 188.176 33.9157 188.176 33.7833C188.176 33.6147 188.2 33.5304 188.248 33.5304C188.356 33.5304 188.501 33.5184 188.681 33.4943C188.862 33.4582 189.031 33.41 189.187 33.3498C189.344 33.2896 189.434 33.2294 189.458 33.1692C189.506 33.0006 189.536 32.7839 189.548 32.519C189.572 32.2541 189.584 31.935 189.584 31.5618V24.554C189.584 24.1808 189.572 23.8617 189.548 23.5968C189.536 23.3199 189.506 23.1031 189.458 22.9466C189.434 22.8744 189.344 22.8142 189.187 22.766C189.031 22.7058 188.862 22.6576 188.681 22.6215C188.501 22.5854 188.356 22.5673 188.248 22.5673C188.2 22.5673 188.176 22.4891 188.176 22.3325C188.176 22.188 188.2 22.0917 188.248 22.0436C188.356 22.0436 188.537 22.0556 188.79 22.0797C189.055 22.0917 189.338 22.1098 189.639 22.1339C189.94 22.1459 190.199 22.1519 190.415 22.1519C190.801 22.1519 191.186 22.1399 191.571 22.1158C191.957 22.0797 192.27 22.0556 192.51 22.0436C192.534 22.0917 192.54 22.1941 192.528 22.3506C192.528 22.4951 192.51 22.5673 192.474 22.5673C192.402 22.5673 192.276 22.5914 192.095 22.6396C191.914 22.6757 191.746 22.7239 191.589 22.7841C191.433 22.8322 191.342 22.8864 191.318 22.9466C191.21 23.356 191.156 23.9159 191.156 24.6263V27.3174L191.192 27.3716C191.782 27.3836 192.306 27.3957 192.763 27.4077C193.221 27.4077 193.612 27.4077 193.937 27.4077C194.286 27.4077 194.684 27.4077 195.129 27.4077C195.575 27.3957 196.068 27.3836 196.61 27.3716C196.634 27.3475 196.646 27.3234 196.646 27.2993V24.554C196.646 24.1808 196.634 23.8617 196.61 23.5968C196.598 23.3199 196.568 23.1031 196.52 22.9466C196.496 22.8744 196.406 22.8142 196.249 22.766C196.093 22.7058 195.924 22.6576 195.743 22.6215C195.563 22.5854 195.418 22.5673 195.31 22.5673C195.262 22.5673 195.238 22.4891 195.238 22.3325C195.238 22.188 195.262 22.0917 195.31 22.0436C195.406 22.0436 195.587 22.0556 195.852 22.0797C196.117 22.0917 196.4 22.1098 196.701 22.1339C197.014 22.1459 197.279 22.1519 197.495 22.1519C197.881 22.1519 198.26 22.1399 198.633 22.1158C199.006 22.0797 199.313 22.0556 199.554 22.0436C199.578 22.1399 199.59 22.2302 199.59 22.3145C199.59 22.483 199.566 22.5673 199.518 22.5673C199.446 22.5673 199.319 22.5914 199.139 22.6396C198.958 22.6757 198.79 22.7239 198.633 22.7841C198.477 22.8322 198.386 22.8864 198.362 22.9466C198.314 23.1393 198.278 23.3741 198.254 23.651C198.23 23.9279 198.218 24.253 198.218 24.6263V31.4895C198.218 31.8628 198.23 32.1879 198.254 32.4648C198.278 32.7417 198.314 32.9765 198.362 33.1692C198.386 33.2174 198.477 33.2715 198.633 33.3317C198.79 33.3919 198.958 33.4401 199.139 33.4762C199.319 33.5124 199.446 33.5304 199.518 33.5304C199.566 33.5304 199.59 33.6207 199.59 33.8013C199.59 33.8736 199.578 33.9579 199.554 34.0542C198.952 34.0301 198.477 34.012 198.127 34C197.79 33.9759 197.58 33.9639 197.495 33.9639L195.31 34.0542C195.262 34.006 195.238 33.9037 195.238 33.7471C195.238 33.6027 195.262 33.5304 195.31 33.5304C195.418 33.5304 195.563 33.5184 195.743 33.4943C195.924 33.4582 196.093 33.41 196.249 33.3498C196.406 33.2896 196.496 33.2294 196.52 33.1692C196.568 33.0006 196.598 32.7839 196.61 32.519C196.634 32.2541 196.646 31.935 196.646 31.5618V28.383L196.61 28.3108C196.044 28.2987 195.539 28.2927 195.093 28.2927C194.648 28.2807 194.262 28.2746 193.937 28.2746C192.083 28.2746 191.156 28.3047 191.156 28.3649V31.4895C191.156 32.1879 191.21 32.7478 191.318 33.1692C191.342 33.2174 191.433 33.2715 191.589 33.3317C191.746 33.3919 191.914 33.4401 192.095 33.4762C192.276 33.5124 192.402 33.5304 192.474 33.5304C192.51 33.5304 192.528 33.6027 192.528 33.7471C192.54 33.8916 192.534 33.994 192.51 34.0542C191.908 34.0301 191.433 34.012 191.084 34C190.734 33.9759 190.512 33.9639 190.415 33.9639L188.248 34.0542ZM209.199 34.0722C208.898 34.0722 208.5 34.0662 208.007 34.0542C207.525 34.0542 206.953 34.0482 206.291 34.0361C205.629 34.0241 205.027 34.012 204.485 34C203.943 34 203.461 34 203.04 34L200.855 34.0542C200.818 34.0181 200.8 33.9217 200.8 33.7652C200.8 33.6087 200.818 33.5304 200.855 33.5304C200.963 33.5304 201.107 33.5124 201.288 33.4762C201.469 33.4281 201.637 33.3739 201.794 33.3137C201.962 33.2535 202.065 33.1873 202.101 33.115C202.185 32.9826 202.227 32.4166 202.227 31.4173V24.5902C202.227 24.241 202.215 23.9339 202.191 23.6691C202.179 23.4042 202.149 23.1934 202.101 23.0369C202.077 22.9647 201.98 22.8984 201.812 22.8382C201.655 22.778 201.481 22.7299 201.288 22.6938C201.107 22.6576 200.963 22.6396 200.855 22.6396C200.806 22.6396 200.782 22.5673 200.782 22.4228C200.782 22.2663 200.806 22.164 200.855 22.1158C201.168 22.1278 201.499 22.1399 201.848 22.1519C202.209 22.1519 202.595 22.1519 203.004 22.1519C203.281 22.1519 203.654 22.1459 204.124 22.1339C204.593 22.1218 205.159 22.1038 205.821 22.0797C206.496 22.0556 207.08 22.0375 207.573 22.0255C208.079 22.0135 208.5 22.0074 208.838 22.0074C208.862 22.176 208.898 22.3807 208.946 22.6215C208.994 22.8503 209.054 23.1031 209.127 23.3801C209.187 23.6691 209.235 23.9038 209.271 24.0845C209.319 24.2651 209.349 24.3915 209.361 24.4637C209.301 24.5239 209.193 24.554 209.036 24.554C208.88 24.554 208.795 24.5119 208.783 24.4276C208.603 23.7654 208.35 23.344 208.025 23.1633C207.7 22.9707 207.254 22.8744 206.688 22.8744H205.478C204.431 22.8744 203.901 22.9526 203.889 23.1092C203.865 23.2536 203.841 23.4523 203.817 23.7052C203.805 23.958 203.799 24.2651 203.799 24.6263V27.5161C203.799 27.5883 204.057 27.6244 204.575 27.6244H205.532C205.942 27.6244 206.219 27.6244 206.363 27.6244C206.508 27.6124 206.61 27.5943 206.67 27.5702C206.743 27.5462 206.875 27.51 207.068 27.4619C207.188 27.4378 207.278 27.2993 207.339 27.0465C207.411 26.7816 207.471 26.5648 207.519 26.3963C207.531 26.312 207.622 26.2699 207.79 26.2699C207.935 26.2699 208.037 26.3 208.097 26.3602V29.7737C208.049 29.8219 207.953 29.8459 207.808 29.8459C207.652 29.8459 207.555 29.7978 207.519 29.7015C207.471 29.5329 207.429 29.3884 207.393 29.268C207.357 29.1476 207.327 29.0452 207.302 28.961C207.242 28.7924 207.194 28.6961 207.158 28.672C207.134 28.6479 207.086 28.6118 207.013 28.5636C206.845 28.4673 206.207 28.4191 205.099 28.4191C204.232 28.4191 203.799 28.4733 203.799 28.5817V31.3811C203.799 32.1638 203.853 32.7116 203.961 33.0247C203.997 33.1451 204.407 33.2053 205.189 33.2053H206.056C207.164 33.2053 207.923 33.103 208.332 32.8983C208.513 32.8019 208.711 32.5912 208.928 32.2661C209.157 31.929 209.337 31.5317 209.47 31.0741C209.494 31.0019 209.578 30.9657 209.723 30.9657C209.951 30.9657 210.102 31.0019 210.174 31.0741C210.138 31.1704 210.078 31.3209 209.994 31.5256C209.921 31.7183 209.849 31.917 209.777 32.1216C209.705 32.3263 209.644 32.5009 209.596 32.6454C209.524 32.8622 209.446 33.109 209.361 33.3859C209.277 33.6629 209.223 33.8916 209.199 34.0722Z" fill="white"/>
<path d="M148.479 56.4726C148.343 56.4726 148.245 56.4141 148.187 56.2972L142.196 41.189C141.709 39.9032 141.271 38.9681 140.881 38.3836C140.745 38.1693 140.462 38.0037 140.034 37.8868C139.605 37.77 139.264 37.7115 139.011 37.7115C138.933 37.7115 138.894 37.5849 138.894 37.3316C138.894 37.0978 138.933 36.942 139.011 36.864C139.478 36.8835 140.004 36.9127 140.589 36.9517C141.173 36.9907 141.767 37.0102 142.371 37.0102C142.605 37.0102 143.024 37.0004 143.628 36.9809C144.232 36.942 145.021 36.903 145.995 36.864C146.034 36.942 146.044 37.1076 146.024 37.3608C146.024 37.5946 145.995 37.7115 145.937 37.7115C145.566 37.7115 145.187 37.7894 144.797 37.9453C144.407 38.1011 144.212 38.3447 144.212 38.6759C144.212 39.2408 145.44 42.5235 147.895 48.524C148.167 49.1863 148.401 49.7805 148.596 50.3066C148.81 50.8131 148.995 51.2514 149.151 51.6216C149.21 51.719 149.287 51.7482 149.385 51.7093C149.502 51.6508 149.58 51.5729 149.619 51.4755L154.002 40.8968C154.372 39.9617 154.557 39.2798 154.557 38.8512C154.557 38.559 154.431 38.3349 154.177 38.1791C153.924 38.0037 153.632 37.8868 153.301 37.8284C152.989 37.7505 152.726 37.7115 152.512 37.7115C152.434 37.7115 152.395 37.5849 152.395 37.3316C152.395 37.0978 152.434 36.942 152.512 36.864C153.427 36.903 154.138 36.942 154.645 36.9809C155.171 37.0004 155.502 37.0102 155.639 37.0102L158.59 36.864C158.629 37.0199 158.649 37.166 158.649 37.3024C158.649 37.5751 158.61 37.7115 158.532 37.7115C157.655 37.7115 157.071 37.9843 156.778 38.5297C156.564 38.9389 156.33 39.3967 156.077 39.9032C155.843 40.3903 155.6 40.9358 155.346 41.5397L149.502 55.5082C149.249 56.1511 148.908 56.4726 148.479 56.4726ZM173.581 56.3265C173.094 56.3265 172.451 56.3167 171.653 56.2972C170.873 56.2972 169.948 56.2875 168.877 56.268C167.805 56.2485 166.831 56.2291 165.954 56.2096C165.078 56.2096 164.298 56.2096 163.616 56.2096L160.08 56.2972C160.022 56.2388 159.993 56.0829 159.993 55.8297C159.993 55.5764 160.022 55.4498 160.08 55.4498C160.256 55.4498 160.49 55.4206 160.782 55.3621C161.074 55.2842 161.347 55.1965 161.6 55.0991C161.873 55.0017 162.038 54.8945 162.097 54.7777C162.233 54.5634 162.301 53.6477 162.301 52.0307V40.9845C162.301 40.4195 162.282 39.9227 162.243 39.4941C162.223 39.0655 162.175 38.7246 162.097 38.4713C162.058 38.3544 161.902 38.2473 161.629 38.1498C161.376 38.0524 161.094 37.9745 160.782 37.9161C160.49 37.8576 160.256 37.8284 160.08 37.8284C160.003 37.8284 159.964 37.7115 159.964 37.4777C159.964 37.2245 160.003 37.0589 160.08 36.9809C160.587 37.0004 161.123 37.0199 161.688 37.0394C162.272 37.0394 162.896 37.0394 163.558 37.0394C164.006 37.0394 164.61 37.0296 165.37 37.0102C166.13 36.9907 167.045 36.9615 168.117 36.9225C169.208 36.8835 170.153 36.8543 170.951 36.8348C171.77 36.8153 172.451 36.8056 172.997 36.8056C173.036 37.0783 173.094 37.4095 173.172 37.7992C173.25 38.1693 173.348 38.5785 173.465 39.0265C173.562 39.4941 173.64 39.874 173.698 40.1662C173.776 40.4585 173.825 40.663 173.844 40.7799C173.747 40.8773 173.572 40.926 173.318 40.926C173.065 40.926 172.929 40.8578 172.909 40.7215C172.617 39.65 172.208 38.9681 171.682 38.6759C171.156 38.3642 170.435 38.2083 169.519 38.2083H167.562C165.867 38.2083 165.009 38.3349 164.99 38.5882C164.951 38.822 164.912 39.1434 164.873 39.5525C164.854 39.9617 164.844 40.4585 164.844 41.0429V45.7186C164.844 45.8355 165.263 45.8939 166.1 45.8939H167.649C168.312 45.8939 168.76 45.8939 168.993 45.8939C169.227 45.8744 169.393 45.8452 169.49 45.8062C169.607 45.7673 169.821 45.7088 170.133 45.6309C170.328 45.5919 170.474 45.3679 170.571 44.9588C170.688 44.5302 170.786 44.1795 170.864 43.9068C170.883 43.7704 171.029 43.7022 171.302 43.7022C171.536 43.7022 171.701 43.7509 171.799 43.8483V49.3714C171.721 49.4494 171.565 49.4883 171.331 49.4883C171.078 49.4883 170.922 49.4104 170.864 49.2545C170.786 48.9818 170.718 48.748 170.659 48.5532C170.601 48.3584 170.552 48.1928 170.513 48.0564C170.416 47.7836 170.338 47.6278 170.279 47.5888C170.24 47.5499 170.162 47.4914 170.045 47.4135C169.773 47.2576 168.74 47.1797 166.948 47.1797C165.545 47.1797 164.844 47.2674 164.844 47.4427V51.9723C164.844 53.2386 164.931 54.125 165.107 54.6315C165.165 54.8264 165.828 54.9238 167.094 54.9238H168.497C170.289 54.9238 171.516 54.7582 172.179 54.427C172.471 54.2711 172.792 53.9302 173.143 53.4042C173.513 52.8587 173.805 52.2158 174.02 51.4755C174.059 51.3586 174.195 51.3001 174.429 51.3001C174.799 51.3001 175.043 51.3586 175.159 51.4755C175.101 51.6313 175.004 51.8748 174.867 52.206C174.75 52.5178 174.633 52.8392 174.517 53.1704C174.4 53.5016 174.302 53.7841 174.224 54.0179C174.107 54.3685 173.981 54.7679 173.844 55.216C173.708 55.6641 173.62 56.0342 173.581 56.3265ZM190.443 56.3265C189.43 56.3265 187.852 56.2972 185.709 56.2388C184.637 56.1998 183.663 56.1706 182.787 56.1511C181.91 56.1316 181.14 56.1316 180.478 56.1511L176.942 56.2388C176.884 56.1803 176.854 56.0245 176.854 55.7712C176.854 55.518 176.884 55.3913 176.942 55.3913C177.137 55.3913 177.371 55.3621 177.643 55.3037C177.936 55.2452 178.208 55.177 178.462 55.0991C178.734 55.0017 178.9 54.8945 178.958 54.7777C179.095 54.5634 179.163 53.6477 179.163 52.0307V40.9845C179.163 39.6987 179.095 38.8122 178.958 38.3252C178.919 38.2083 178.773 38.1109 178.52 38.033C178.267 37.9355 177.994 37.8576 177.702 37.7992C177.41 37.7407 177.176 37.7115 177 37.7115C176.923 37.7115 176.884 37.5849 176.884 37.3316C176.884 37.0978 176.923 36.942 177 36.864C177.176 36.864 177.468 36.8835 177.877 36.9225C178.306 36.942 178.764 36.9712 179.251 37.0102C179.738 37.0296 180.157 37.0394 180.507 37.0394C181.131 37.0394 181.754 37.0199 182.377 36.9809C183.001 36.9225 183.507 36.8835 183.897 36.864C183.936 37.0199 183.956 37.166 183.956 37.3024C183.956 37.5751 183.917 37.7115 183.839 37.7115C183.722 37.7115 183.517 37.7505 183.225 37.8284C182.933 37.8868 182.66 37.9648 182.407 38.0622C182.153 38.1401 182.007 38.2278 181.968 38.3252C181.793 38.9876 181.705 39.8935 181.705 41.0429V52.0599C181.705 53.0925 181.793 53.9497 181.968 54.6315C182.027 54.8264 182.689 54.9238 183.956 54.9238H185.358C187.151 54.9238 188.378 54.7582 189.04 54.427C189.333 54.2711 189.654 53.9302 190.005 53.4042C190.375 52.8587 190.667 52.2158 190.881 51.4755C190.92 51.3586 191.057 51.3001 191.29 51.3001C191.661 51.3001 191.904 51.3586 192.021 51.4755C191.963 51.6313 191.865 51.8748 191.729 52.206C191.612 52.5178 191.495 52.8392 191.378 53.1704C191.261 53.5016 191.164 53.7841 191.086 54.0179C190.969 54.3685 190.842 54.7679 190.706 55.216C190.57 55.6641 190.482 56.0342 190.443 56.3265ZM200.729 56.4726C200.593 56.4726 200.496 56.4141 200.437 56.2972L194.447 41.189C193.959 39.9032 193.521 38.9681 193.132 38.3836C192.995 38.1693 192.713 38.0037 192.284 37.8868C191.855 37.77 191.515 37.7115 191.261 37.7115C191.183 37.7115 191.144 37.5849 191.144 37.3316C191.144 37.0978 191.183 36.942 191.261 36.864C191.729 36.8835 192.255 36.9127 192.839 36.9517C193.424 36.9907 194.018 37.0102 194.622 37.0102C194.856 37.0102 195.275 37.0004 195.878 36.9809C196.482 36.942 197.271 36.903 198.246 36.864C198.284 36.942 198.294 37.1076 198.275 37.3608C198.275 37.5946 198.246 37.7115 198.187 37.7115C197.817 37.7115 197.437 37.7894 197.047 37.9453C196.658 38.1011 196.463 38.3447 196.463 38.6759C196.463 39.2408 197.69 42.5235 200.145 48.524C200.418 49.1863 200.652 49.7805 200.846 50.3066C201.061 50.8131 201.246 51.2514 201.402 51.6216C201.46 51.719 201.538 51.7482 201.635 51.7093C201.752 51.6508 201.83 51.5729 201.869 51.4755L206.253 40.8968C206.623 39.9617 206.808 39.2798 206.808 38.8512C206.808 38.559 206.681 38.3349 206.428 38.1791C206.175 38.0037 205.882 37.8868 205.551 37.8284C205.24 37.7505 204.976 37.7115 204.762 37.7115C204.684 37.7115 204.645 37.5849 204.645 37.3316C204.645 37.0978 204.684 36.942 204.762 36.864C205.678 36.903 206.389 36.942 206.895 36.9809C207.421 37.0004 207.753 37.0102 207.889 37.0102L210.841 36.864C210.88 37.0199 210.899 37.166 210.899 37.3024C210.899 37.5751 210.86 37.7115 210.782 37.7115C209.905 37.7115 209.321 37.9843 209.029 38.5297C208.814 38.9389 208.581 39.3967 208.327 39.9032C208.094 40.3903 207.85 40.9358 207.597 41.5397L201.752 55.5082C201.499 56.1511 201.158 56.4726 200.729 56.4726ZM225.832 56.3265C225.345 56.3265 224.702 56.3167 223.903 56.2972C223.124 56.2972 222.198 56.2875 221.127 56.268C220.055 56.2485 219.081 56.2291 218.205 56.2096C217.328 56.2096 216.549 56.2096 215.867 56.2096L212.331 56.2972C212.272 56.2388 212.243 56.0829 212.243 55.8297C212.243 55.5764 212.272 55.4498 212.331 55.4498C212.506 55.4498 212.74 55.4206 213.032 55.3621C213.324 55.2842 213.597 55.1965 213.851 55.0991C214.123 55.0017 214.289 54.8945 214.347 54.7777C214.484 54.5634 214.552 53.6477 214.552 52.0307V40.9845C214.552 40.4195 214.532 39.9227 214.493 39.4941C214.474 39.0655 214.425 38.7246 214.347 38.4713C214.308 38.3544 214.152 38.2473 213.88 38.1498C213.626 38.0524 213.344 37.9745 213.032 37.9161C212.74 37.8576 212.506 37.8284 212.331 37.8284C212.253 37.8284 212.214 37.7115 212.214 37.4777C212.214 37.2245 212.253 37.0589 212.331 36.9809C212.837 37.0004 213.373 37.0199 213.938 37.0394C214.523 37.0394 215.146 37.0394 215.808 37.0394C216.257 37.0394 216.86 37.0296 217.62 37.0102C218.38 36.9907 219.296 36.9615 220.367 36.9225C221.458 36.8835 222.403 36.8543 223.202 36.8348C224.02 36.8153 224.702 36.8056 225.247 36.8056C225.286 37.0783 225.345 37.4095 225.423 37.7992C225.501 38.1693 225.598 38.5785 225.715 39.0265C225.812 39.4941 225.89 39.874 225.949 40.1662C226.027 40.4585 226.075 40.663 226.095 40.7799C225.997 40.8773 225.822 40.926 225.569 40.926C225.316 40.926 225.179 40.8578 225.16 40.7215C224.868 39.65 224.458 38.9681 223.932 38.6759C223.406 38.3642 222.686 38.2083 221.77 38.2083H219.812C218.117 38.2083 217.26 38.3349 217.24 38.5882C217.201 38.822 217.162 39.1434 217.123 39.5525C217.104 39.9617 217.094 40.4585 217.094 41.0429V45.7186C217.094 45.8355 217.513 45.8939 218.351 45.8939H219.9C220.562 45.8939 221.01 45.8939 221.244 45.8939C221.478 45.8744 221.643 45.8452 221.741 45.8062C221.858 45.7673 222.072 45.7088 222.384 45.6309C222.578 45.5919 222.725 45.3679 222.822 44.9588C222.939 44.5302 223.036 44.1795 223.114 43.9068C223.134 43.7704 223.28 43.7022 223.552 43.7022C223.786 43.7022 223.952 43.7509 224.049 43.8483V49.3714C223.971 49.4494 223.815 49.4883 223.582 49.4883C223.328 49.4883 223.173 49.4104 223.114 49.2545C223.036 48.9818 222.968 48.748 222.91 48.5532C222.851 48.3584 222.802 48.1928 222.763 48.0564C222.666 47.7836 222.588 47.6278 222.53 47.5888C222.491 47.5499 222.413 47.4914 222.296 47.4135C222.023 47.2576 220.991 47.1797 219.198 47.1797C217.796 47.1797 217.094 47.2674 217.094 47.4427V51.9723C217.094 53.2386 217.182 54.125 217.357 54.6315C217.416 54.8264 218.078 54.9238 219.344 54.9238H220.747C222.539 54.9238 223.767 54.7582 224.429 54.427C224.721 54.2711 225.043 53.9302 225.394 53.4042C225.764 52.8587 226.056 52.2158 226.27 51.4755C226.309 51.3586 226.446 51.3001 226.679 51.3001C227.049 51.3001 227.293 51.3586 227.41 51.4755C227.351 51.6313 227.254 51.8748 227.118 52.206C227.001 52.5178 226.884 52.8392 226.767 53.1704C226.65 53.5016 226.553 53.7841 226.475 54.0179C226.358 54.3685 226.231 54.7679 226.095 55.216C225.959 55.6641 225.871 56.0342 225.832 56.3265ZM234.394 56.2972C234.316 56.2193 234.277 56.0732 234.277 55.8589C234.277 55.5862 234.316 55.4498 234.394 55.4498C234.57 55.4498 234.803 55.4303 235.096 55.3913C235.388 55.3329 235.66 55.255 235.914 55.1575C236.167 55.0601 236.313 54.9627 236.352 54.8653C236.43 54.5926 236.479 54.2419 236.498 53.8133C236.537 53.3847 236.557 52.8684 236.557 52.2645V41.6858C236.557 39.9909 236.469 38.9876 236.294 38.6759C236.157 38.3836 235.105 38.2375 233.138 38.2375C232.397 38.2375 231.823 38.3057 231.413 38.4421C231.004 38.559 230.693 38.8025 230.478 39.1726C230.264 39.5428 230.059 40.098 229.865 40.8384C229.826 40.9358 229.728 40.9845 229.572 40.9845C229.241 40.9845 229.007 40.9163 228.871 40.7799L229.426 36.601C229.855 36.6984 230.235 36.7764 230.566 36.8348C230.897 36.8933 231.189 36.9225 231.443 36.9225C232.845 36.9225 234.082 36.942 235.154 36.9809C236.225 37.0199 237.122 37.0394 237.842 37.0394C239.343 37.0394 240.628 37.0199 241.7 36.9809C242.791 36.942 243.648 36.9225 244.271 36.9225C244.525 36.9225 244.817 36.8933 245.148 36.8348C245.479 36.7764 245.859 36.6984 246.288 36.601L246.843 40.7799C246.707 40.9163 246.473 40.9845 246.142 40.9845C245.986 40.9845 245.888 40.9358 245.85 40.8384C245.674 40.098 245.47 39.5428 245.236 39.1726C245.022 38.8025 244.71 38.559 244.301 38.4421C243.892 38.3057 243.317 38.2375 242.577 38.2375C240.531 38.2375 239.459 38.3836 239.362 38.6759C239.187 39.2798 239.099 40.2539 239.099 41.5981V52.1476C239.099 53.2775 239.187 54.1835 239.362 54.8653C239.401 54.9432 239.547 55.0309 239.8 55.1283C240.054 55.2257 240.326 55.3037 240.619 55.3621C240.911 55.4206 241.115 55.4498 241.232 55.4498C241.31 55.4498 241.349 55.5959 241.349 55.8881C241.349 56.005 241.33 56.1414 241.291 56.2972C240.317 56.2583 239.547 56.2291 238.982 56.2096C238.417 56.1706 238.057 56.1511 237.901 56.1511L234.394 56.2972Z" fill="white"/>
<path d="M163.234 76.3708C162.873 76.3708 162.489 76.3407 162.083 76.2805C161.677 76.2353 161.338 76.1827 161.067 76.1225C160.51 76.0171 160.104 75.9343 159.848 75.8741C159.607 75.7989 159.381 75.7462 159.171 75.7161C158.975 74.7829 158.832 74.0229 158.742 73.4359C158.651 72.8338 158.606 72.3974 158.606 72.1264C158.606 72.0361 158.727 71.991 158.967 71.991C159.238 71.991 159.426 72.0587 159.532 72.1942C160.059 74.3615 161.308 75.4452 163.279 75.4452C164.032 75.4452 164.672 75.2194 165.198 74.7679C165.725 74.3163 165.989 73.6767 165.989 72.8489C165.989 72.578 165.928 72.2468 165.808 71.8555C165.703 71.4642 165.454 71.1256 165.063 70.8396C164.762 70.6138 164.514 70.4483 164.318 70.3429C164.122 70.2225 163.927 70.1171 163.731 70.0268C163.535 69.9215 163.287 69.7785 162.986 69.5979L162.083 69.0561C161.616 68.7701 161.15 68.4465 160.683 68.0853C160.217 67.709 159.825 67.2725 159.509 66.7758C159.208 66.2792 159.058 65.7148 159.058 65.0826C159.058 64.2849 159.261 63.5926 159.667 63.0056C160.089 62.4036 160.63 61.937 161.293 61.6059C161.97 61.2747 162.7 61.1092 163.483 61.1092C163.814 61.1092 164.122 61.1317 164.408 61.1769C164.709 61.207 164.958 61.2446 165.153 61.2898C165.605 61.3951 165.921 61.4779 166.101 61.5381C166.297 61.5983 166.561 61.6661 166.892 61.7413C167.072 62.524 167.163 63.6001 167.163 64.9697C167.163 65.0751 167.087 65.1278 166.937 65.1278C166.561 65.1278 166.365 65.0525 166.35 64.902C166.275 64.4505 166.109 64.0065 165.853 63.57C165.597 63.1335 165.251 62.7723 164.815 62.4863C164.378 62.1853 163.859 62.0348 163.257 62.0348C162.64 62.0348 162.158 62.1552 161.812 62.396C161.466 62.6218 161.217 62.9153 161.067 63.2765C160.931 63.6227 160.864 63.9914 160.864 64.3827C160.864 64.759 160.954 65.1353 161.135 65.5116C161.315 65.8878 161.579 66.2039 161.925 66.4598C162.391 66.8059 162.858 67.1295 163.325 67.4306C163.806 67.7316 164.303 68.0401 164.815 68.3562C165.296 68.6572 165.778 68.9959 166.26 69.3721C166.741 69.7333 167.14 70.1472 167.456 70.6138C167.787 71.0804 167.953 71.6222 167.953 72.2393C167.953 73.037 167.735 73.7519 167.298 74.3841C166.862 75.0012 166.282 75.4903 165.56 75.8515C164.852 76.1977 164.077 76.3708 163.234 76.3708ZM173.665 76.2128C173.604 76.1526 173.574 76.0397 173.574 75.8741C173.574 75.6634 173.604 75.558 173.665 75.558C173.8 75.558 173.981 75.543 174.206 75.5129C174.432 75.4677 174.643 75.4075 174.839 75.3323C175.034 75.257 175.147 75.1818 175.177 75.1065C175.237 74.8958 175.275 74.6249 175.29 74.2938C175.32 73.9627 175.335 73.5638 175.335 73.0972V64.9246C175.335 63.6151 175.267 62.84 175.132 62.5992C175.027 62.3734 174.214 62.2606 172.694 62.2606C172.122 62.2606 171.678 62.3132 171.362 62.4186C171.046 62.5089 170.805 62.697 170.639 62.983C170.474 63.269 170.316 63.6979 170.165 64.2699C170.135 64.3451 170.06 64.3827 169.939 64.3827C169.684 64.3827 169.503 64.3301 169.398 64.2247L169.827 60.9963C170.158 61.0715 170.451 61.1317 170.707 61.1769C170.963 61.2221 171.189 61.2446 171.384 61.2446C172.468 61.2446 173.424 61.2597 174.252 61.2898C175.079 61.3199 175.772 61.3349 176.329 61.3349C177.488 61.3349 178.481 61.3199 179.309 61.2898C180.152 61.2597 180.814 61.2446 181.295 61.2446C181.491 61.2446 181.717 61.2221 181.973 61.1769C182.229 61.1317 182.522 61.0715 182.853 60.9963L183.282 64.2247C183.177 64.3301 182.996 64.3827 182.74 64.3827C182.62 64.3827 182.545 64.3451 182.515 64.2699C182.379 63.6979 182.221 63.269 182.04 62.983C181.875 62.697 181.634 62.5089 181.318 62.4186C181.002 62.3132 180.558 62.2606 179.986 62.2606C178.406 62.2606 177.578 62.3734 177.503 62.5992C177.367 63.0658 177.299 63.8183 177.299 64.8569V73.0069C177.299 73.8799 177.367 74.5797 177.503 75.1065C177.533 75.1667 177.646 75.2345 177.841 75.3097C178.037 75.385 178.248 75.4452 178.473 75.4903C178.699 75.5355 178.857 75.558 178.947 75.558C179.008 75.558 179.038 75.6709 179.038 75.8967C179.038 75.987 179.023 76.0924 178.993 76.2128C178.24 76.1827 177.646 76.1601 177.209 76.145C176.773 76.1149 176.494 76.0999 176.374 76.0999L173.665 76.2128ZM185.856 74.1357C184.441 72.6607 183.734 70.8622 183.734 68.74C183.734 67.6864 183.922 66.7006 184.298 65.7825C184.674 64.8493 185.186 64.0366 185.833 63.3442C186.495 62.6368 187.263 62.0875 188.136 61.6962C189.009 61.2898 189.942 61.0866 190.935 61.0866C191.929 61.0866 192.862 61.2898 193.735 61.6962C194.608 62.0875 195.376 62.6368 196.038 63.3442C196.7 64.0366 197.219 64.8493 197.596 65.7825C197.972 66.7006 198.16 67.6864 198.16 68.74C198.16 70.8622 197.453 72.6607 196.038 74.1357C195.074 75.1592 193.983 75.8365 192.764 76.1676C191.545 76.5138 190.326 76.5138 189.107 76.1676C187.903 75.8365 186.819 75.1592 185.856 74.1357ZM191.297 75.4C192.26 75.4 193.103 75.0839 193.825 74.4518C194.548 73.8347 195.074 73.0671 195.406 72.149C195.752 71.2159 195.925 70.2225 195.925 69.1689C195.925 67.9799 195.729 66.8436 195.338 65.7599C194.947 64.6913 194.337 63.8033 193.509 63.0959C192.681 62.3885 191.711 62.0348 190.597 62.0348C189.649 62.0348 188.828 62.3283 188.136 62.9153C187.444 63.4872 186.909 64.2473 186.533 65.1955C186.157 66.1287 185.969 67.1446 185.969 68.2433C185.969 69.4323 186.164 70.5687 186.556 71.6523C186.947 72.721 187.557 73.6165 188.384 74.3389C189.212 75.0463 190.183 75.4 191.297 75.4ZM213.625 76.2579C211.533 76.2579 209.704 75.1743 208.139 73.0069C208.018 72.8414 207.86 72.6156 207.665 72.3296C207.484 72.0437 207.145 71.5395 206.649 70.817C206.408 70.4708 206.19 70.1849 205.994 69.9591C205.813 69.7183 205.595 69.5377 205.339 69.4173C205.098 69.2969 204.767 69.2367 204.346 69.2367C204.18 69.2367 204.045 69.2592 203.939 69.3044C203.849 69.3495 203.804 69.4549 203.804 69.6205V72.9392C203.804 73.9326 203.864 74.5873 203.985 74.9033C204.045 75.0237 204.188 75.1366 204.414 75.242C204.654 75.3473 204.91 75.4301 205.181 75.4903C205.452 75.5355 205.648 75.558 205.768 75.558C205.828 75.558 205.858 75.6634 205.858 75.8741C205.858 75.9795 205.843 76.0924 205.813 76.2128C205.061 76.1827 204.436 76.1526 203.939 76.1225C203.458 76.0924 203.104 76.0848 202.878 76.0999L200.124 76.2128C200.079 76.1676 200.056 76.0322 200.056 75.8064C200.056 75.6107 200.079 75.5129 200.124 75.5129C200.275 75.5129 200.455 75.4903 200.666 75.4452C200.892 75.4 201.102 75.3473 201.298 75.2871C201.509 75.2119 201.637 75.1291 201.682 75.0388C201.787 74.8732 201.84 74.1658 201.84 72.9166V64.3827C201.84 63.9463 201.825 63.5625 201.795 63.2314C201.78 62.9002 201.742 62.6368 201.682 62.4412C201.652 62.3509 201.531 62.2681 201.321 62.1928C201.125 62.1176 200.907 62.0574 200.666 62.0122C200.44 61.9671 200.26 61.9445 200.124 61.9445C200.064 61.9445 200.034 61.8542 200.034 61.6736C200.034 61.4779 200.064 61.35 200.124 61.2898L202.833 61.3349C203.27 61.35 203.804 61.3425 204.436 61.3124C205.068 61.2672 205.595 61.2446 206.017 61.2446C206.829 61.2446 207.604 61.4027 208.342 61.7187C209.094 62.0348 209.704 62.5014 210.171 63.1185C210.652 63.7356 210.893 64.4881 210.893 65.3761C210.893 66.0082 210.652 66.6705 210.171 67.3628C209.704 68.0552 209.064 68.5895 208.252 68.9657C208.101 69.026 208.056 69.1012 208.116 69.1915C208.854 70.7568 209.719 72.0813 210.712 73.165C212.157 74.7453 213.331 75.5355 214.234 75.5355C214.279 75.6258 214.302 75.7311 214.302 75.8515C214.302 75.987 214.279 76.0999 214.234 76.1902C214.084 76.2353 213.881 76.2579 213.625 76.2579ZM205.768 68.2659H206.333C206.694 68.2659 207.063 68.1455 207.439 67.9047C207.83 67.6638 208.154 67.3252 208.41 66.8887C208.681 66.4522 208.816 65.948 208.816 65.3761C208.816 63.284 207.762 62.238 205.655 62.238C204.963 62.238 204.436 62.2907 204.075 62.396C203.939 62.4261 203.857 62.6745 203.827 63.141C203.812 63.5926 203.804 64.172 203.804 64.8794V67.6112C203.804 68.0476 204.459 68.2659 205.768 68.2659ZM214.776 76.2128C214.701 76.1375 214.663 76.0246 214.663 75.8741C214.663 75.6634 214.701 75.558 214.776 75.558C214.927 75.558 215.122 75.5355 215.363 75.4903C215.604 75.4452 215.837 75.385 216.063 75.3097C216.289 75.2345 216.447 75.1517 216.537 75.0614C216.793 74.7905 216.928 74.1357 216.943 73.0972C216.974 71.3513 217.004 69.786 217.034 68.4013C217.079 67.0016 217.117 65.8577 217.147 64.9697C217.177 64.0667 217.192 63.4872 217.192 63.2314C217.192 62.825 217.162 62.524 217.102 62.3283C217.071 62.238 216.936 62.1627 216.695 62.1025C216.469 62.0273 216.221 61.9671 215.95 61.9219C215.679 61.8768 215.468 61.8542 215.318 61.8542C215.258 61.8542 215.228 61.7488 215.228 61.5381C215.228 61.3726 215.258 61.2597 215.318 61.1995C215.679 61.2145 216.078 61.2371 216.515 61.2672C216.951 61.2973 217.395 61.3124 217.847 61.3124C218.132 61.3124 218.441 61.3048 218.772 61.2898C219.118 61.2597 219.502 61.2296 219.924 61.1995C220.044 61.5306 221.534 65.3009 224.394 72.5102C224.424 72.5403 224.454 72.5554 224.484 72.5554C224.544 72.5554 224.582 72.5253 224.597 72.4651C225.334 70.7342 225.997 69.1539 226.584 67.724C227.171 66.2942 227.682 65.0224 228.119 63.9086L229.022 61.1995C229.503 61.2296 229.895 61.2522 230.196 61.2672C230.512 61.2823 230.745 61.2898 230.896 61.2898C231.362 61.2898 231.806 61.2823 232.228 61.2672C232.649 61.2522 233.048 61.2296 233.424 61.1995C233.469 61.3349 233.492 61.4478 233.492 61.5381C233.492 61.7488 233.454 61.8542 233.379 61.8542H233.334C233.168 61.8542 232.95 61.9069 232.679 62.0122C232.408 62.1025 232.205 62.2004 232.07 62.3057C231.889 62.4412 231.799 62.9454 231.799 63.8183L232.002 72.9843C232.032 73.8573 232.145 74.5496 232.341 75.0614C232.386 75.1517 232.506 75.2345 232.702 75.3097C232.897 75.385 233.108 75.4452 233.334 75.4903C233.575 75.5355 233.748 75.558 233.853 75.558C233.913 75.558 233.943 75.6634 233.943 75.8741C233.943 75.9795 233.928 76.0924 233.898 76.2128C233.146 76.1827 232.544 76.1601 232.092 76.145C231.656 76.1149 231.362 76.0999 231.212 76.0999L228.503 76.2128C228.442 76.1526 228.412 76.0322 228.412 75.8515C228.412 75.6559 228.442 75.558 228.503 75.558C228.653 75.558 228.879 75.5204 229.18 75.4452C229.496 75.3699 229.722 75.2947 229.857 75.2194C230.038 75.099 230.128 74.7754 230.128 74.2486V73.0521L229.857 65.1052C229.857 64.9396 229.835 64.759 229.789 64.5634C229.759 64.3526 229.722 64.172 229.677 64.0215C229.631 63.856 229.579 63.7732 229.519 63.7732C229.488 63.7732 229.451 63.8259 229.406 63.9312L224.687 75.2194C224.401 75.8666 224.123 76.1902 223.852 76.1902C223.837 76.1902 223.769 76.1751 223.649 76.145L218.479 63.0056C218.434 65.1278 218.381 67.0242 218.321 68.6948C218.26 70.3504 218.208 71.6824 218.163 72.6909C218.132 73.6993 218.117 74.2862 218.117 74.4518C218.117 74.7227 218.163 74.9184 218.253 75.0388C218.313 75.114 218.464 75.1968 218.704 75.2871C218.945 75.3624 219.194 75.4301 219.449 75.4903C219.72 75.5355 219.901 75.558 219.991 75.558C220.051 75.558 220.082 75.6709 220.082 75.8967C220.082 75.987 220.067 76.0924 220.036 76.2128C219.284 76.1827 218.689 76.1601 218.253 76.145C217.816 76.1149 217.538 76.0999 217.418 76.0999L214.776 76.2128Z" fill="white"/>
<path d="M100.344 51.7365H116.55M23.3039 51.7365H39.5098M53.0977 77.6946L33.4013 78.5724C5.90943 78.0177 2.55319 54.997 6.22516 45.2156C10.2145 29.6659 34.0247 20.1354 40.6315 37.19C38.7617 20.5116 44.5802 2.627 70.7591 2C95.442 3.63022 101.84 22.1418 99.5963 36.3121C102.713 22.6434 132.257 23.145 135 53.3667C134.377 76.3152 114.431 78.5724 99.5963 77.6946H82.1437L85.7589 72.5532M63.9434 21.7656H80.5233L68.9298 43.7108L87.8783 44.714L58.0843 95L68.9298 57.3796L52.7239 56.7526L63.9434 21.7656Z" stroke="white" stroke-width="4" stroke-linecap="round" stroke-linejoin="round"/>
</svg>
