<svg width="160" height="160" viewBox="0 0 160 160" fill="none" xmlns="http://www.w3.org/2000/svg">
<g clip-path="url(#clip0_14_164)">
<path d="M68.6797 111.047C68.638 111.005 68.6172 110.927 68.6172 110.812C68.6172 110.667 68.638 110.594 68.6797 110.594C68.7734 110.594 68.8984 110.583 69.0547 110.562C69.2109 110.531 69.3568 110.49 69.4922 110.438C69.6276 110.385 69.7057 110.333 69.7266 110.281C69.7682 110.135 69.7943 109.948 69.8047 109.719C69.8255 109.49 69.8359 109.214 69.8359 108.891V103.234C69.8359 102.328 69.7891 101.792 69.6953 101.625C69.6224 101.469 69.0599 101.391 68.0078 101.391C67.612 101.391 67.3047 101.427 67.0859 101.5C66.8672 101.562 66.7005 101.693 66.5859 101.891C66.4714 102.089 66.362 102.385 66.2578 102.781C66.237 102.833 66.1849 102.859 66.1016 102.859C65.9245 102.859 65.7995 102.823 65.7266 102.75L66.0234 100.516C66.2526 100.568 66.4557 100.609 66.6328 100.641C66.8099 100.672 66.9661 100.688 67.1016 100.688C67.8516 100.688 68.513 100.698 69.0859 100.719C69.6589 100.74 70.138 100.75 70.5234 100.75C71.3255 100.75 72.013 100.74 72.5859 100.719C73.1693 100.698 73.6276 100.688 73.9609 100.688C74.0964 100.688 74.2526 100.672 74.4297 100.641C74.6068 100.609 74.8099 100.568 75.0391 100.516L75.3359 102.75C75.263 102.823 75.138 102.859 74.9609 102.859C74.8776 102.859 74.8255 102.833 74.8047 102.781C74.7109 102.385 74.6016 102.089 74.4766 101.891C74.362 101.693 74.1953 101.562 73.9766 101.5C73.7578 101.427 73.4505 101.391 73.0547 101.391C71.9609 101.391 71.388 101.469 71.3359 101.625C71.2422 101.948 71.1953 102.469 71.1953 103.188V108.828C71.1953 109.432 71.2422 109.917 71.3359 110.281C71.3568 110.323 71.4349 110.37 71.5703 110.422C71.7057 110.474 71.8516 110.516 72.0078 110.547C72.1641 110.578 72.2734 110.594 72.3359 110.594C72.3776 110.594 72.3984 110.672 72.3984 110.828C72.3984 110.891 72.388 110.964 72.3672 111.047C71.8464 111.026 71.4349 111.01 71.1328 111C70.8307 110.979 70.638 110.969 70.5547 110.969L68.6797 111.047ZM76.3984 111.047C76.3568 111.005 76.3359 110.927 76.3359 110.812C76.3359 110.667 76.3568 110.594 76.3984 110.594C76.4922 110.594 76.6172 110.583 76.7734 110.562C76.9297 110.531 77.0755 110.49 77.2109 110.438C77.3464 110.385 77.4245 110.333 77.4453 110.281C77.487 110.135 77.513 109.948 77.5234 109.719C77.5443 109.49 77.5547 109.214 77.5547 108.891V102.828C77.5547 102.505 77.5443 102.229 77.5234 102C77.513 101.76 77.487 101.573 77.4453 101.438C77.4245 101.375 77.3464 101.323 77.2109 101.281C77.0755 101.229 76.9297 101.188 76.7734 101.156C76.6172 101.125 76.4922 101.109 76.3984 101.109C76.3568 101.109 76.3359 101.042 76.3359 100.906C76.3359 100.781 76.3568 100.698 76.3984 100.656C76.4922 100.656 76.6484 100.667 76.8672 100.688C77.0964 100.698 77.3411 100.714 77.6016 100.734C77.862 100.745 78.0859 100.75 78.2734 100.75C78.6068 100.75 78.9401 100.74 79.2734 100.719C79.6068 100.688 79.8776 100.667 80.0859 100.656C80.1068 100.698 80.112 100.786 80.1016 100.922C80.1016 101.047 80.0859 101.109 80.0547 101.109C79.9922 101.109 79.8828 101.13 79.7266 101.172C79.5703 101.203 79.4245 101.245 79.2891 101.297C79.1536 101.339 79.0755 101.385 79.0547 101.438C78.9609 101.792 78.9141 102.276 78.9141 102.891V105.219L78.9453 105.266C79.4557 105.276 79.9089 105.286 80.3047 105.297C80.7005 105.297 81.0391 105.297 81.3203 105.297C81.6224 105.297 81.9661 105.297 82.3516 105.297C82.737 105.286 83.1641 105.276 83.6328 105.266C83.6536 105.245 83.6641 105.224 83.6641 105.203V102.828C83.6641 102.505 83.6536 102.229 83.6328 102C83.6224 101.76 83.5964 101.573 83.5547 101.438C83.5339 101.375 83.4557 101.323 83.3203 101.281C83.1849 101.229 83.0391 101.188 82.8828 101.156C82.7266 101.125 82.6016 101.109 82.5078 101.109C82.4661 101.109 82.4453 101.042 82.4453 100.906C82.4453 100.781 82.4661 100.698 82.5078 100.656C82.5911 100.656 82.7474 100.667 82.9766 100.688C83.2057 100.698 83.4505 100.714 83.7109 100.734C83.9818 100.745 84.2109 100.75 84.3984 100.75C84.7318 100.75 85.0599 100.74 85.3828 100.719C85.7057 100.688 85.9714 100.667 86.1797 100.656C86.2005 100.74 86.2109 100.818 86.2109 100.891C86.2109 101.036 86.1901 101.109 86.1484 101.109C86.0859 101.109 85.9766 101.13 85.8203 101.172C85.6641 101.203 85.5182 101.245 85.3828 101.297C85.2474 101.339 85.1693 101.385 85.1484 101.438C85.1068 101.604 85.0755 101.807 85.0547 102.047C85.0339 102.286 85.0234 102.568 85.0234 102.891V108.828C85.0234 109.151 85.0339 109.432 85.0547 109.672C85.0755 109.911 85.1068 110.115 85.1484 110.281C85.1693 110.323 85.2474 110.37 85.3828 110.422C85.5182 110.474 85.6641 110.516 85.8203 110.547C85.9766 110.578 86.0859 110.594 86.1484 110.594C86.1901 110.594 86.2109 110.672 86.2109 110.828C86.2109 110.891 86.2005 110.964 86.1797 111.047C85.6589 111.026 85.2474 111.01 84.9453 111C84.6536 110.979 84.4714 110.969 84.3984 110.969L82.5078 111.047C82.4661 111.005 82.4453 110.917 82.4453 110.781C82.4453 110.656 82.4661 110.594 82.5078 110.594C82.6016 110.594 82.7266 110.583 82.8828 110.562C83.0391 110.531 83.1849 110.49 83.3203 110.438C83.4557 110.385 83.5339 110.333 83.5547 110.281C83.5964 110.135 83.6224 109.948 83.6328 109.719C83.6536 109.49 83.6641 109.214 83.6641 108.891V106.141L83.6328 106.078C83.1432 106.068 82.7057 106.062 82.3203 106.062C81.9349 106.052 81.6016 106.047 81.3203 106.047C79.7161 106.047 78.9141 106.073 78.9141 106.125V108.828C78.9141 109.432 78.9609 109.917 79.0547 110.281C79.0755 110.323 79.1536 110.37 79.2891 110.422C79.4245 110.474 79.5703 110.516 79.7266 110.547C79.8828 110.578 79.9922 110.594 80.0547 110.594C80.0859 110.594 80.1016 110.656 80.1016 110.781C80.112 110.906 80.1068 110.995 80.0859 111.047C79.5651 111.026 79.1536 111.01 78.8516 111C78.5495 110.979 78.3568 110.969 78.2734 110.969L76.3984 111.047ZM94.5234 111.062C94.263 111.062 93.9193 111.057 93.4922 111.047C93.0755 111.047 92.5807 111.042 92.0078 111.031C91.4349 111.021 90.9141 111.01 90.4453 111C89.9766 111 89.5599 111 89.1953 111L87.3047 111.047C87.2734 111.016 87.2578 110.932 87.2578 110.797C87.2578 110.661 87.2734 110.594 87.3047 110.594C87.3984 110.594 87.5234 110.578 87.6797 110.547C87.8359 110.505 87.9818 110.458 88.1172 110.406C88.263 110.354 88.3516 110.297 88.3828 110.234C88.4557 110.12 88.4922 109.63 88.4922 108.766V102.859C88.4922 102.557 88.4818 102.292 88.4609 102.062C88.4505 101.833 88.4245 101.651 88.3828 101.516C88.362 101.453 88.2786 101.396 88.1328 101.344C87.9974 101.292 87.8464 101.25 87.6797 101.219C87.5234 101.188 87.3984 101.172 87.3047 101.172C87.263 101.172 87.2422 101.109 87.2422 100.984C87.2422 100.849 87.263 100.76 87.3047 100.719C87.5755 100.729 87.862 100.74 88.1641 100.75C88.4766 100.75 88.8099 100.75 89.1641 100.75C89.4036 100.75 89.7266 100.745 90.1328 100.734C90.5391 100.724 91.0286 100.708 91.6016 100.688C92.1849 100.667 92.6901 100.651 93.1172 100.641C93.5547 100.63 93.9193 100.625 94.2109 100.625C94.2318 100.771 94.263 100.948 94.3047 101.156C94.3464 101.354 94.3984 101.573 94.4609 101.812C94.513 102.062 94.5547 102.266 94.5859 102.422C94.6276 102.578 94.6536 102.688 94.6641 102.75C94.612 102.802 94.5182 102.828 94.3828 102.828C94.2474 102.828 94.1745 102.792 94.1641 102.719C94.0078 102.146 93.7891 101.781 93.5078 101.625C93.2266 101.458 92.8411 101.375 92.3516 101.375H91.3047C90.3984 101.375 89.9401 101.443 89.9297 101.578C89.9089 101.703 89.888 101.875 89.8672 102.094C89.8568 102.312 89.8516 102.578 89.8516 102.891V105.391C89.8516 105.453 90.0755 105.484 90.5234 105.484H91.3516C91.7057 105.484 91.9453 105.484 92.0703 105.484C92.1953 105.474 92.2839 105.458 92.3359 105.438C92.3984 105.417 92.513 105.385 92.6797 105.344C92.7839 105.323 92.862 105.203 92.9141 104.984C92.9766 104.755 93.0286 104.568 93.0703 104.422C93.0807 104.349 93.1589 104.312 93.3047 104.312C93.4297 104.312 93.5182 104.339 93.5703 104.391V107.344C93.5286 107.385 93.4453 107.406 93.3203 107.406C93.1849 107.406 93.1016 107.365 93.0703 107.281C93.0286 107.135 92.9922 107.01 92.9609 106.906C92.9297 106.802 92.9036 106.714 92.8828 106.641C92.8307 106.495 92.7891 106.411 92.7578 106.391C92.737 106.37 92.6953 106.339 92.6328 106.297C92.487 106.214 91.9349 106.172 90.9766 106.172C90.2266 106.172 89.8516 106.219 89.8516 106.312V108.734C89.8516 109.411 89.8984 109.885 89.9922 110.156C90.0234 110.26 90.3776 110.312 91.0547 110.312H91.8047C92.763 110.312 93.4193 110.224 93.7734 110.047C93.9297 109.964 94.1016 109.781 94.2891 109.5C94.487 109.208 94.6432 108.865 94.7578 108.469C94.7786 108.406 94.8516 108.375 94.9766 108.375C95.1745 108.375 95.3047 108.406 95.3672 108.469C95.3359 108.552 95.2839 108.682 95.2109 108.859C95.1484 109.026 95.0859 109.198 95.0234 109.375C94.9609 109.552 94.9089 109.703 94.8672 109.828C94.8047 110.016 94.737 110.229 94.6641 110.469C94.5911 110.708 94.5443 110.906 94.5234 111.062Z" fill="white"/>
<path d="M27.4395 139.987C27.2754 139.987 27.1582 139.917 27.0879 139.776L19.8809 121.601C19.2949 120.054 18.7676 118.929 18.2988 118.226C18.1348 117.968 17.7949 117.769 17.2793 117.628C16.7637 117.487 16.3535 117.417 16.0488 117.417C15.9551 117.417 15.9082 117.265 15.9082 116.96C15.9082 116.679 15.9551 116.491 16.0488 116.397C16.6113 116.421 17.2441 116.456 17.9473 116.503C18.6504 116.55 19.3652 116.573 20.0918 116.573C20.373 116.573 20.877 116.561 21.6035 116.538C22.3301 116.491 23.2793 116.444 24.4512 116.397C24.498 116.491 24.5098 116.69 24.4863 116.995C24.4863 117.276 24.4512 117.417 24.3809 117.417C23.9355 117.417 23.4785 117.511 23.0098 117.698C22.541 117.886 22.3066 118.179 22.3066 118.577C22.3066 119.257 23.7832 123.206 26.7363 130.425C27.0645 131.222 27.3457 131.936 27.5801 132.569C27.8379 133.179 28.0605 133.706 28.248 134.151C28.3184 134.269 28.4121 134.304 28.5293 134.257C28.6699 134.186 28.7637 134.093 28.8105 133.976L34.084 121.249C34.5293 120.124 34.752 119.304 34.752 118.788C34.752 118.436 34.5996 118.167 34.2949 117.979C33.9902 117.769 33.6387 117.628 33.2402 117.558C32.8652 117.464 32.5488 117.417 32.291 117.417C32.1973 117.417 32.1504 117.265 32.1504 116.96C32.1504 116.679 32.1973 116.491 32.291 116.397C33.3926 116.444 34.248 116.491 34.8574 116.538C35.4902 116.561 35.8887 116.573 36.0527 116.573L39.6035 116.397C39.6504 116.585 39.6738 116.761 39.6738 116.925C39.6738 117.253 39.627 117.417 39.5332 117.417C38.4785 117.417 37.7754 117.745 37.4238 118.401C37.166 118.894 36.8848 119.444 36.5801 120.054C36.2988 120.64 36.0059 121.296 35.7012 122.022L28.6699 138.827C28.3652 139.601 27.9551 139.987 27.4395 139.987ZM57.6387 139.811C57.0527 139.811 56.2793 139.8 55.3184 139.776C54.3809 139.776 53.2676 139.765 51.9785 139.741C50.6895 139.718 49.5176 139.694 48.4629 139.671C47.4082 139.671 46.4707 139.671 45.6504 139.671L41.3965 139.776C41.3262 139.706 41.291 139.519 41.291 139.214C41.291 138.909 41.3262 138.757 41.3965 138.757C41.6074 138.757 41.8887 138.722 42.2402 138.651C42.5918 138.558 42.9199 138.452 43.2246 138.335C43.5527 138.218 43.752 138.089 43.8223 137.948C43.9863 137.69 44.0684 136.589 44.0684 134.644V121.354C44.0684 120.675 44.0449 120.077 43.998 119.561C43.9746 119.046 43.916 118.636 43.8223 118.331C43.7754 118.19 43.5879 118.061 43.2598 117.944C42.9551 117.827 42.6152 117.733 42.2402 117.663C41.8887 117.593 41.6074 117.558 41.3965 117.558C41.3027 117.558 41.2559 117.417 41.2559 117.136C41.2559 116.831 41.3027 116.632 41.3965 116.538C42.0059 116.561 42.6504 116.585 43.3301 116.608C44.0332 116.608 44.7832 116.608 45.5801 116.608C46.1191 116.608 46.8457 116.597 47.7598 116.573C48.6738 116.55 49.7754 116.515 51.0645 116.468C52.377 116.421 53.5137 116.386 54.4746 116.362C55.459 116.339 56.2793 116.327 56.9355 116.327C56.9824 116.655 57.0527 117.054 57.1465 117.522C57.2402 117.968 57.3574 118.46 57.498 118.999C57.6152 119.561 57.709 120.019 57.7793 120.37C57.873 120.722 57.9316 120.968 57.9551 121.108C57.8379 121.226 57.627 121.284 57.3223 121.284C57.0176 121.284 56.8535 121.202 56.8301 121.038C56.4785 119.749 55.9863 118.929 55.3535 118.577C54.7207 118.202 53.8535 118.015 52.752 118.015H50.3965C48.3574 118.015 47.3262 118.167 47.3027 118.472C47.2559 118.753 47.209 119.14 47.1621 119.632C47.1387 120.124 47.127 120.722 47.127 121.425V127.05C47.127 127.19 47.6309 127.261 48.6387 127.261H50.502C51.2988 127.261 51.8379 127.261 52.1191 127.261C52.4004 127.237 52.5996 127.202 52.7168 127.155C52.8574 127.108 53.1152 127.038 53.4902 126.944C53.7246 126.897 53.9004 126.628 54.0176 126.136C54.1582 125.62 54.2754 125.198 54.3691 124.87C54.3926 124.706 54.5684 124.624 54.8965 124.624C55.1777 124.624 55.377 124.683 55.4941 124.8V131.444C55.4004 131.538 55.2129 131.585 54.9316 131.585C54.627 131.585 54.4395 131.491 54.3691 131.304C54.2754 130.976 54.1934 130.694 54.123 130.46C54.0527 130.226 53.9941 130.026 53.9473 129.862C53.8301 129.534 53.7363 129.347 53.666 129.3C53.6191 129.253 53.5254 129.183 53.3848 129.089C53.0566 128.901 51.8145 128.808 49.6582 128.808C47.9707 128.808 47.127 128.913 47.127 129.124V134.573C47.127 136.097 47.2324 137.163 47.4434 137.772C47.5137 138.007 48.3105 138.124 49.834 138.124H51.5215C53.6777 138.124 55.1543 137.925 55.9512 137.526C56.3027 137.339 56.6895 136.929 57.1113 136.296C57.5566 135.64 57.9082 134.866 58.166 133.976C58.2129 133.835 58.377 133.765 58.6582 133.765C59.1035 133.765 59.3965 133.835 59.5371 133.976C59.4668 134.163 59.3496 134.456 59.1855 134.854C59.0449 135.229 58.9043 135.616 58.7637 136.015C58.623 136.413 58.5059 136.753 58.4121 137.034C58.2715 137.456 58.1191 137.936 57.9551 138.476C57.791 139.015 57.6855 139.46 57.6387 139.811ZM77.9238 139.811C76.7051 139.811 74.8066 139.776 72.2285 139.706C70.9395 139.659 69.7676 139.624 68.7129 139.601C67.6582 139.577 66.7324 139.577 65.9355 139.601L61.6816 139.706C61.6113 139.636 61.5762 139.448 61.5762 139.144C61.5762 138.839 61.6113 138.686 61.6816 138.686C61.916 138.686 62.1973 138.651 62.5254 138.581C62.877 138.511 63.2051 138.429 63.5098 138.335C63.8379 138.218 64.0371 138.089 64.1074 137.948C64.2715 137.69 64.3535 136.589 64.3535 134.644V121.354C64.3535 119.808 64.2715 118.741 64.1074 118.155C64.0605 118.015 63.8848 117.897 63.5801 117.804C63.2754 117.686 62.9473 117.593 62.5957 117.522C62.2441 117.452 61.9629 117.417 61.752 117.417C61.6582 117.417 61.6113 117.265 61.6113 116.96C61.6113 116.679 61.6582 116.491 61.752 116.397C61.9629 116.397 62.3145 116.421 62.8066 116.468C63.3223 116.491 63.873 116.526 64.459 116.573C65.0449 116.597 65.5488 116.608 65.9707 116.608C66.7207 116.608 67.4707 116.585 68.2207 116.538C68.9707 116.468 69.5801 116.421 70.0488 116.397C70.0957 116.585 70.1191 116.761 70.1191 116.925C70.1191 117.253 70.0723 117.417 69.9785 117.417C69.8379 117.417 69.5918 117.464 69.2402 117.558C68.8887 117.628 68.5605 117.722 68.2559 117.839C67.9512 117.933 67.7754 118.038 67.7285 118.155C67.5176 118.952 67.4121 120.042 67.4121 121.425V134.679C67.4121 135.921 67.5176 136.952 67.7285 137.772C67.7988 138.007 68.5957 138.124 70.1191 138.124H71.8066C73.9629 138.124 75.4395 137.925 76.2363 137.526C76.5879 137.339 76.9746 136.929 77.3965 136.296C77.8418 135.64 78.1934 134.866 78.4512 133.976C78.498 133.835 78.6621 133.765 78.9434 133.765C79.3887 133.765 79.6816 133.835 79.8223 133.976C79.752 134.163 79.6348 134.456 79.4707 134.854C79.3301 135.229 79.1895 135.616 79.0488 136.015C78.9082 136.413 78.791 136.753 78.6973 137.034C78.5566 137.456 78.4043 137.936 78.2402 138.476C78.0762 139.015 77.9707 139.46 77.9238 139.811ZM90.2988 139.987C90.1348 139.987 90.0176 139.917 89.9473 139.776L82.7402 121.601C82.1543 120.054 81.627 118.929 81.1582 118.226C80.9941 117.968 80.6543 117.769 80.1387 117.628C79.623 117.487 79.2129 117.417 78.9082 117.417C78.8145 117.417 78.7676 117.265 78.7676 116.96C78.7676 116.679 78.8145 116.491 78.9082 116.397C79.4707 116.421 80.1035 116.456 80.8066 116.503C81.5098 116.55 82.2246 116.573 82.9512 116.573C83.2324 116.573 83.7363 116.561 84.4629 116.538C85.1895 116.491 86.1387 116.444 87.3105 116.397C87.3574 116.491 87.3691 116.69 87.3457 116.995C87.3457 117.276 87.3105 117.417 87.2402 117.417C86.7949 117.417 86.3379 117.511 85.8691 117.698C85.4004 117.886 85.166 118.179 85.166 118.577C85.166 119.257 86.6426 123.206 89.5957 130.425C89.9238 131.222 90.2051 131.936 90.4395 132.569C90.6973 133.179 90.9199 133.706 91.1074 134.151C91.1777 134.269 91.2715 134.304 91.3887 134.257C91.5293 134.186 91.623 134.093 91.6699 133.976L96.9434 121.249C97.3887 120.124 97.6113 119.304 97.6113 118.788C97.6113 118.436 97.459 118.167 97.1543 117.979C96.8496 117.769 96.498 117.628 96.0996 117.558C95.7246 117.464 95.4082 117.417 95.1504 117.417C95.0566 117.417 95.0098 117.265 95.0098 116.96C95.0098 116.679 95.0566 116.491 95.1504 116.397C96.252 116.444 97.1074 116.491 97.7168 116.538C98.3496 116.561 98.748 116.573 98.9121 116.573L102.463 116.397C102.51 116.585 102.533 116.761 102.533 116.925C102.533 117.253 102.486 117.417 102.393 117.417C101.338 117.417 100.635 117.745 100.283 118.401C100.025 118.894 99.7441 119.444 99.4395 120.054C99.1582 120.64 98.8652 121.296 98.5605 122.022L91.5293 138.827C91.2246 139.601 90.8145 139.987 90.2988 139.987ZM120.498 139.811C119.912 139.811 119.139 139.8 118.178 139.776C117.24 139.776 116.127 139.765 114.838 139.741C113.549 139.718 112.377 139.694 111.322 139.671C110.268 139.671 109.33 139.671 108.51 139.671L104.256 139.776C104.186 139.706 104.15 139.519 104.15 139.214C104.15 138.909 104.186 138.757 104.256 138.757C104.467 138.757 104.748 138.722 105.1 138.651C105.451 138.558 105.779 138.452 106.084 138.335C106.412 138.218 106.611 138.089 106.682 137.948C106.846 137.69 106.928 136.589 106.928 134.644V121.354C106.928 120.675 106.904 120.077 106.857 119.561C106.834 119.046 106.775 118.636 106.682 118.331C106.635 118.19 106.447 118.061 106.119 117.944C105.814 117.827 105.475 117.733 105.1 117.663C104.748 117.593 104.467 117.558 104.256 117.558C104.162 117.558 104.115 117.417 104.115 117.136C104.115 116.831 104.162 116.632 104.256 116.538C104.865 116.561 105.51 116.585 106.189 116.608C106.893 116.608 107.643 116.608 108.439 116.608C108.979 116.608 109.705 116.597 110.619 116.573C111.533 116.55 112.635 116.515 113.924 116.468C115.236 116.421 116.373 116.386 117.334 116.362C118.318 116.339 119.139 116.327 119.795 116.327C119.842 116.655 119.912 117.054 120.006 117.522C120.1 117.968 120.217 118.46 120.357 118.999C120.475 119.561 120.568 120.019 120.639 120.37C120.732 120.722 120.791 120.968 120.814 121.108C120.697 121.226 120.486 121.284 120.182 121.284C119.877 121.284 119.713 121.202 119.689 121.038C119.338 119.749 118.846 118.929 118.213 118.577C117.58 118.202 116.713 118.015 115.611 118.015H113.256C111.217 118.015 110.186 118.167 110.162 118.472C110.115 118.753 110.068 119.14 110.021 119.632C109.998 120.124 109.986 120.722 109.986 121.425V127.05C109.986 127.19 110.49 127.261 111.498 127.261H113.361C114.158 127.261 114.697 127.261 114.979 127.261C115.26 127.237 115.459 127.202 115.576 127.155C115.717 127.108 115.975 127.038 116.35 126.944C116.584 126.897 116.76 126.628 116.877 126.136C117.018 125.62 117.135 125.198 117.229 124.87C117.252 124.706 117.428 124.624 117.756 124.624C118.037 124.624 118.236 124.683 118.354 124.8V131.444C118.26 131.538 118.072 131.585 117.791 131.585C117.486 131.585 117.299 131.491 117.229 131.304C117.135 130.976 117.053 130.694 116.982 130.46C116.912 130.226 116.854 130.026 116.807 129.862C116.689 129.534 116.596 129.347 116.525 129.3C116.479 129.253 116.385 129.183 116.244 129.089C115.916 128.901 114.674 128.808 112.518 128.808C110.83 128.808 109.986 128.913 109.986 129.124V134.573C109.986 136.097 110.092 137.163 110.303 137.772C110.373 138.007 111.17 138.124 112.693 138.124H114.381C116.537 138.124 118.014 137.925 118.811 137.526C119.162 137.339 119.549 136.929 119.971 136.296C120.416 135.64 120.768 134.866 121.025 133.976C121.072 133.835 121.236 133.765 121.518 133.765C121.963 133.765 122.256 133.835 122.396 133.976C122.326 134.163 122.209 134.456 122.045 134.854C121.904 135.229 121.764 135.616 121.623 136.015C121.482 136.413 121.365 136.753 121.271 137.034C121.131 137.456 120.979 137.936 120.814 138.476C120.65 139.015 120.545 139.46 120.498 139.811ZM130.799 139.776C130.705 139.683 130.658 139.507 130.658 139.249C130.658 138.921 130.705 138.757 130.799 138.757C131.01 138.757 131.291 138.733 131.643 138.686C131.994 138.616 132.322 138.522 132.627 138.405C132.932 138.288 133.107 138.171 133.154 138.054C133.248 137.726 133.307 137.304 133.33 136.788C133.377 136.272 133.4 135.651 133.4 134.925V122.198C133.4 120.159 133.295 118.952 133.084 118.577C132.92 118.226 131.654 118.05 129.287 118.05C128.396 118.05 127.705 118.132 127.213 118.296C126.721 118.436 126.346 118.729 126.088 119.175C125.83 119.62 125.584 120.288 125.35 121.179C125.303 121.296 125.186 121.354 124.998 121.354C124.6 121.354 124.318 121.272 124.154 121.108L124.822 116.081C125.338 116.198 125.795 116.292 126.193 116.362C126.592 116.433 126.943 116.468 127.248 116.468C128.936 116.468 130.424 116.491 131.713 116.538C133.002 116.585 134.08 116.608 134.947 116.608C136.752 116.608 138.299 116.585 139.588 116.538C140.9 116.491 141.932 116.468 142.682 116.468C142.986 116.468 143.338 116.433 143.736 116.362C144.135 116.292 144.592 116.198 145.107 116.081L145.775 121.108C145.611 121.272 145.33 121.354 144.932 121.354C144.744 121.354 144.627 121.296 144.58 121.179C144.369 120.288 144.123 119.62 143.842 119.175C143.584 118.729 143.209 118.436 142.717 118.296C142.225 118.132 141.533 118.05 140.643 118.05C138.182 118.05 136.893 118.226 136.775 118.577C136.564 119.304 136.459 120.476 136.459 122.093V134.784C136.459 136.144 136.564 137.233 136.775 138.054C136.822 138.147 136.998 138.253 137.303 138.37C137.607 138.487 137.936 138.581 138.287 138.651C138.639 138.722 138.885 138.757 139.025 138.757C139.119 138.757 139.166 138.933 139.166 139.284C139.166 139.425 139.143 139.589 139.096 139.776C137.924 139.729 136.998 139.694 136.318 139.671C135.639 139.624 135.205 139.601 135.018 139.601L130.799 139.776Z" fill="white"/>
<path d="M52.0234 156.195C51.7109 156.195 51.3789 156.169 51.0273 156.117C50.6758 156.078 50.3828 156.033 50.1484 155.98C49.6667 155.889 49.3151 155.818 49.0938 155.766C48.8854 155.701 48.6901 155.655 48.5078 155.629C48.3385 154.822 48.2148 154.164 48.1367 153.656C48.0586 153.135 48.0195 152.758 48.0195 152.523C48.0195 152.445 48.1237 152.406 48.332 152.406C48.5664 152.406 48.7292 152.465 48.8203 152.582C49.276 154.457 50.3568 155.395 52.0625 155.395C52.7135 155.395 53.2669 155.199 53.7227 154.809C54.1784 154.418 54.4062 153.865 54.4062 153.148C54.4062 152.914 54.3542 152.628 54.25 152.289C54.1589 151.951 53.944 151.658 53.6055 151.41C53.3451 151.215 53.1302 151.072 52.9609 150.98C52.7917 150.876 52.6224 150.785 52.4531 150.707C52.2839 150.616 52.069 150.492 51.8086 150.336L51.0273 149.867C50.6237 149.62 50.2201 149.34 49.8164 149.027C49.4128 148.702 49.0742 148.324 48.8008 147.895C48.5404 147.465 48.4102 146.977 48.4102 146.43C48.4102 145.74 48.5859 145.141 48.9375 144.633C49.3021 144.112 49.7708 143.708 50.3438 143.422C50.9297 143.135 51.5612 142.992 52.2383 142.992C52.5247 142.992 52.7917 143.012 53.0391 143.051C53.2995 143.077 53.5143 143.109 53.6836 143.148C54.0742 143.24 54.3477 143.311 54.5039 143.363C54.6732 143.415 54.901 143.474 55.1875 143.539C55.3438 144.216 55.4219 145.147 55.4219 146.332C55.4219 146.423 55.3568 146.469 55.2266 146.469C54.901 146.469 54.7318 146.404 54.7188 146.273C54.6536 145.883 54.5104 145.499 54.2891 145.121C54.0677 144.743 53.7682 144.431 53.3906 144.184C53.013 143.923 52.5638 143.793 52.043 143.793C51.5091 143.793 51.0924 143.897 50.793 144.105C50.4935 144.301 50.2786 144.555 50.1484 144.867C50.0312 145.167 49.9727 145.486 49.9727 145.824C49.9727 146.15 50.0508 146.475 50.207 146.801C50.3633 147.126 50.5911 147.4 50.8906 147.621C51.2943 147.921 51.6979 148.201 52.1016 148.461C52.5182 148.721 52.9479 148.988 53.3906 149.262C53.8073 149.522 54.224 149.815 54.6406 150.141C55.0573 150.453 55.4023 150.811 55.6758 151.215C55.9622 151.618 56.1055 152.087 56.1055 152.621C56.1055 153.311 55.9167 153.93 55.5391 154.477C55.1615 155.01 54.6602 155.434 54.0352 155.746C53.4232 156.046 52.7526 156.195 52.0234 156.195ZM61.0469 156.059C60.9948 156.007 60.9688 155.909 60.9688 155.766C60.9688 155.583 60.9948 155.492 61.0469 155.492C61.1641 155.492 61.3203 155.479 61.5156 155.453C61.7109 155.414 61.8932 155.362 62.0625 155.297C62.2318 155.232 62.3294 155.167 62.3555 155.102C62.4076 154.919 62.4401 154.685 62.4531 154.398C62.4792 154.112 62.4922 153.767 62.4922 153.363V146.293C62.4922 145.16 62.4336 144.49 62.3164 144.281C62.2253 144.086 61.5221 143.988 60.207 143.988C59.7122 143.988 59.3281 144.034 59.0547 144.125C58.7812 144.203 58.5729 144.366 58.4297 144.613C58.2865 144.861 58.1497 145.232 58.0195 145.727C57.9935 145.792 57.9284 145.824 57.8242 145.824C57.6029 145.824 57.4466 145.779 57.3555 145.688L57.7266 142.895C58.013 142.96 58.2669 143.012 58.4883 143.051C58.7096 143.09 58.9049 143.109 59.0742 143.109C60.0117 143.109 60.8385 143.122 61.5547 143.148C62.2708 143.174 62.8698 143.188 63.3516 143.188C64.3542 143.188 65.2135 143.174 65.9297 143.148C66.6589 143.122 67.2318 143.109 67.6484 143.109C67.8177 143.109 68.013 143.09 68.2344 143.051C68.4557 143.012 68.7096 142.96 68.9961 142.895L69.3672 145.688C69.276 145.779 69.1198 145.824 68.8984 145.824C68.7943 145.824 68.7292 145.792 68.7031 145.727C68.5859 145.232 68.4492 144.861 68.293 144.613C68.1497 144.366 67.9414 144.203 67.668 144.125C67.3945 144.034 67.0104 143.988 66.5156 143.988C65.1484 143.988 64.4323 144.086 64.3672 144.281C64.25 144.685 64.1914 145.336 64.1914 146.234V153.285C64.1914 154.04 64.25 154.646 64.3672 155.102C64.3932 155.154 64.4909 155.212 64.6602 155.277C64.8294 155.342 65.0117 155.395 65.207 155.434C65.4023 155.473 65.5391 155.492 65.6172 155.492C65.6693 155.492 65.6953 155.59 65.6953 155.785C65.6953 155.863 65.6823 155.954 65.6562 156.059C65.0052 156.033 64.4909 156.013 64.1133 156C63.7357 155.974 63.4948 155.961 63.3906 155.961L61.0469 156.059ZM71.5938 154.262C70.3698 152.986 69.7578 151.43 69.7578 149.594C69.7578 148.682 69.9206 147.829 70.2461 147.035C70.5716 146.228 71.0143 145.525 71.5742 144.926C72.1471 144.314 72.8112 143.839 73.5664 143.5C74.3216 143.148 75.1289 142.973 75.9883 142.973C76.8477 142.973 77.6549 143.148 78.4102 143.5C79.1654 143.839 79.8294 144.314 80.4023 144.926C80.9753 145.525 81.4245 146.228 81.75 147.035C82.0755 147.829 82.2383 148.682 82.2383 149.594C82.2383 151.43 81.6263 152.986 80.4023 154.262C79.569 155.147 78.625 155.733 77.5703 156.02C76.5156 156.319 75.4609 156.319 74.4062 156.02C73.3646 155.733 72.4271 155.147 71.5938 154.262ZM76.3008 155.355C77.1341 155.355 77.8633 155.082 78.4883 154.535C79.1133 154.001 79.569 153.337 79.8555 152.543C80.1549 151.736 80.3047 150.876 80.3047 149.965C80.3047 148.936 80.1354 147.953 79.7969 147.016C79.4583 146.091 78.931 145.323 78.2148 144.711C77.4987 144.099 76.6589 143.793 75.6953 143.793C74.875 143.793 74.1654 144.047 73.5664 144.555C72.9674 145.049 72.5052 145.707 72.1797 146.527C71.8542 147.335 71.6914 148.214 71.6914 149.164C71.6914 150.193 71.8607 151.176 72.1992 152.113C72.5378 153.038 73.0651 153.812 73.7812 154.438C74.4974 155.049 75.3372 155.355 76.3008 155.355ZM95.6172 156.098C93.8073 156.098 92.2253 155.16 90.8711 153.285C90.7669 153.142 90.6302 152.947 90.4609 152.699C90.3047 152.452 90.0117 152.016 89.582 151.391C89.3737 151.091 89.1849 150.844 89.0156 150.648C88.8594 150.44 88.6706 150.284 88.4492 150.18C88.2409 150.076 87.9544 150.023 87.5898 150.023C87.4466 150.023 87.3294 150.043 87.2383 150.082C87.1602 150.121 87.1211 150.212 87.1211 150.355V153.227C87.1211 154.086 87.1732 154.652 87.2773 154.926C87.3294 155.03 87.4531 155.128 87.6484 155.219C87.8568 155.31 88.0781 155.382 88.3125 155.434C88.5469 155.473 88.7161 155.492 88.8203 155.492C88.8724 155.492 88.8984 155.583 88.8984 155.766C88.8984 155.857 88.8854 155.954 88.8594 156.059C88.2083 156.033 87.668 156.007 87.2383 155.98C86.8216 155.954 86.5156 155.948 86.3203 155.961L83.9375 156.059C83.8984 156.02 83.8789 155.902 83.8789 155.707C83.8789 155.538 83.8984 155.453 83.9375 155.453C84.0677 155.453 84.224 155.434 84.4062 155.395C84.6016 155.355 84.7839 155.31 84.9531 155.258C85.1354 155.193 85.2461 155.121 85.2852 155.043C85.3763 154.9 85.4219 154.288 85.4219 153.207V145.824C85.4219 145.447 85.4089 145.115 85.3828 144.828C85.3698 144.542 85.3372 144.314 85.2852 144.145C85.2591 144.066 85.1549 143.995 84.9727 143.93C84.8034 143.865 84.6146 143.812 84.4062 143.773C84.2109 143.734 84.0547 143.715 83.9375 143.715C83.8854 143.715 83.8594 143.637 83.8594 143.48C83.8594 143.311 83.8854 143.201 83.9375 143.148L86.2812 143.188C86.6589 143.201 87.1211 143.194 87.668 143.168C88.2148 143.129 88.6706 143.109 89.0352 143.109C89.7383 143.109 90.4089 143.246 91.0469 143.52C91.6979 143.793 92.2253 144.197 92.6289 144.73C93.0456 145.264 93.2539 145.915 93.2539 146.684C93.2539 147.23 93.0456 147.803 92.6289 148.402C92.2253 149.001 91.6719 149.464 90.9688 149.789C90.8385 149.841 90.7995 149.906 90.8516 149.984C91.4896 151.339 92.2383 152.484 93.0977 153.422C94.3477 154.789 95.3633 155.473 96.1445 155.473C96.1836 155.551 96.2031 155.642 96.2031 155.746C96.2031 155.863 96.1836 155.961 96.1445 156.039C96.0143 156.078 95.8385 156.098 95.6172 156.098ZM88.8203 149.184H89.3086C89.6211 149.184 89.9401 149.079 90.2656 148.871C90.6042 148.663 90.8841 148.37 91.1055 147.992C91.3398 147.615 91.457 147.178 91.457 146.684C91.457 144.874 90.5456 143.969 88.7227 143.969C88.1237 143.969 87.668 144.014 87.3555 144.105C87.2383 144.132 87.1667 144.346 87.1406 144.75C87.1276 145.141 87.1211 145.642 87.1211 146.254V148.617C87.1211 148.995 87.6875 149.184 88.8203 149.184ZM96.6133 156.059C96.5482 155.993 96.5156 155.896 96.5156 155.766C96.5156 155.583 96.5482 155.492 96.6133 155.492C96.7435 155.492 96.9128 155.473 97.1211 155.434C97.3294 155.395 97.5312 155.342 97.7266 155.277C97.9219 155.212 98.0586 155.141 98.1367 155.062C98.3581 154.828 98.4753 154.262 98.4883 153.363C98.5143 151.853 98.5404 150.499 98.5664 149.301C98.6055 148.09 98.638 147.1 98.6641 146.332C98.6901 145.551 98.7031 145.049 98.7031 144.828C98.7031 144.477 98.6771 144.216 98.625 144.047C98.599 143.969 98.4818 143.904 98.2734 143.852C98.0781 143.786 97.8633 143.734 97.6289 143.695C97.3945 143.656 97.2122 143.637 97.082 143.637C97.0299 143.637 97.0039 143.546 97.0039 143.363C97.0039 143.22 97.0299 143.122 97.082 143.07C97.3945 143.083 97.7396 143.103 98.1172 143.129C98.4948 143.155 98.8789 143.168 99.2695 143.168C99.5169 143.168 99.7839 143.161 100.07 143.148C100.37 143.122 100.702 143.096 101.066 143.07C101.171 143.357 102.46 146.618 104.934 152.855C104.96 152.882 104.986 152.895 105.012 152.895C105.064 152.895 105.096 152.868 105.109 152.816C105.747 151.319 106.32 149.952 106.828 148.715C107.336 147.478 107.779 146.378 108.156 145.414L108.938 143.07C109.354 143.096 109.693 143.116 109.953 143.129C110.227 143.142 110.428 143.148 110.559 143.148C110.962 143.148 111.346 143.142 111.711 143.129C112.076 143.116 112.421 143.096 112.746 143.07C112.785 143.188 112.805 143.285 112.805 143.363C112.805 143.546 112.772 143.637 112.707 143.637H112.668C112.525 143.637 112.336 143.682 112.102 143.773C111.867 143.852 111.691 143.936 111.574 144.027C111.418 144.145 111.34 144.581 111.34 145.336L111.516 153.266C111.542 154.021 111.639 154.62 111.809 155.062C111.848 155.141 111.952 155.212 112.121 155.277C112.29 155.342 112.473 155.395 112.668 155.434C112.876 155.473 113.026 155.492 113.117 155.492C113.169 155.492 113.195 155.583 113.195 155.766C113.195 155.857 113.182 155.954 113.156 156.059C112.505 156.033 111.984 156.013 111.594 156C111.216 155.974 110.962 155.961 110.832 155.961L108.488 156.059C108.436 156.007 108.41 155.902 108.41 155.746C108.41 155.577 108.436 155.492 108.488 155.492C108.618 155.492 108.814 155.46 109.074 155.395C109.348 155.329 109.543 155.264 109.66 155.199C109.816 155.095 109.895 154.815 109.895 154.359V153.324L109.66 146.449C109.66 146.306 109.641 146.15 109.602 145.98C109.576 145.798 109.543 145.642 109.504 145.512C109.465 145.368 109.419 145.297 109.367 145.297C109.341 145.297 109.309 145.342 109.27 145.434L105.188 155.199C104.94 155.759 104.699 156.039 104.465 156.039C104.452 156.039 104.393 156.026 104.289 156L99.8164 144.633C99.7773 146.469 99.7318 148.109 99.6797 149.555C99.6276 150.987 99.582 152.139 99.543 153.012C99.5169 153.884 99.5039 154.392 99.5039 154.535C99.5039 154.77 99.543 154.939 99.6211 155.043C99.6732 155.108 99.8034 155.18 100.012 155.258C100.22 155.323 100.435 155.382 100.656 155.434C100.891 155.473 101.047 155.492 101.125 155.492C101.177 155.492 101.203 155.59 101.203 155.785C101.203 155.863 101.19 155.954 101.164 156.059C100.513 156.033 99.9987 156.013 99.6211 156C99.2435 155.974 99.0026 155.961 98.8984 155.961L96.6133 156.059Z" fill="white"/>
<path d="M110.332 52.3995H126.196M34.9176 52.3995H50.7816M64.0827 77.6598L44.8019 78.514C17.8902 77.9742 14.6048 55.5723 18.1993 46.0539C22.1044 30.9222 45.4122 21.6479 51.8796 38.244C50.0492 22.014 55.745 4.61015 81.3714 4C105.533 5.58639 111.797 23.6004 109.6 37.3898C112.651 24.0885 141.572 24.5766 144.257 53.9859C143.646 76.3175 124.122 78.514 109.6 77.6598H92.5158L96.0546 72.6566M74.6995 23.2343H90.9296L79.5807 44.5896L98.1294 45.5658L68.9641 94.5L79.5807 57.8909L63.7168 57.2807L74.6995 23.2343Z" stroke="white" stroke-width="4" stroke-linecap="round" stroke-linejoin="round"/>
</g>
<defs>
<clipPath id="clip0_14_164">
<rect width="160" height="160" fill="white"/>
</clipPath>
</defs>
</svg>
